<?xml version="1.0" encoding="UTF-8" standalone="no"?>
<!DOCTYPE svg PUBLIC "-//W3C//DTD SVG 1.1//EN" "http://www.w3.org/Graphics/SVG/1.1/DTD/svg11.dtd">
<svg width="100%" height="100%" viewBox="0 0 3918 1179" version="1.1" xmlns="http://www.w3.org/2000/svg" xmlns:xlink="http://www.w3.org/1999/xlink" xml:space="preserve" xmlns:serif="http://www.serif.com/" style="fill-rule:evenodd;clip-rule:evenodd;stroke-linejoin:round;stroke-miterlimit:2;">
    <g transform="matrix(1,0,0,1,-117.84372,-123)">
        <g transform="matrix(1,0,0,1,0,78)">
            <g transform="matrix(3.125,0,0,-3.125,142.78927,1198.466765)">
                <path d="M267.127,-8L-7.983,-8L-7.983,369.109L1245.545,369.109L1245.545,-8L970.261,-8L970.261,8L1229.545,8L1229.545,353.109L8.017,353.109L8.017,8L267.127,8L267.127,-8Z" style="fill:rgb(8,6,5);"/>
            </g>
            <g>
                <g transform="matrix(4.150896,0,0,2.029847,1.768171,293.41396)">
                    <path d="M110.745,111.434L129.502,111.434L171.758,217.439L171.758,135.929C171.758,127.243 171.282,121.822 170.33,119.668C169.073,116.75 167.085,115.29 164.367,115.29L161.971,115.29L161.971,111.434L186.03,111.434L186.03,115.29L183.583,115.29C180.661,115.29 178.588,117.097 177.365,120.711C176.617,122.934 176.243,128.007 176.243,135.929L176.243,255.068L174.408,255.068L128.839,141.245L128.839,228.28C128.839,236.966 129.298,242.386 130.216,244.54C131.507,247.459 133.495,248.918 136.179,248.918L138.626,248.918L138.626,252.775L114.567,252.775L114.567,248.918L116.963,248.918C119.919,248.918 122.009,247.111 123.233,243.498C123.98,241.274 124.354,236.202 124.354,228.28L124.354,129.987C122.349,125.193 120.828,122.031 119.792,120.502C118.756,118.973 117.235,117.549 115.23,116.229C114.245,115.603 112.749,115.29 110.745,115.29L110.745,111.434Z" style="fill:rgb(8,6,5);fill-rule:nonzero;"/>
                </g>
                <g transform="matrix(4.150896,0,0,2.029847,1.768171,293.41396)">
                    <path d="M216.767,119.147L216.767,175.016L231.956,175.016C235.898,175.016 238.532,173.8 239.857,171.368C241.624,168.172 242.609,162.543 242.813,154.482L244.699,154.482L244.699,203.681L242.813,203.681C242.338,196.801 241.862,192.389 241.386,190.443C240.774,188.011 239.772,186.1 238.379,184.71C236.986,183.32 234.845,182.625 231.956,182.625L216.767,182.625L216.767,229.218C216.767,235.472 216.903,239.276 217.175,240.631C217.446,241.987 217.922,243.064 218.602,243.863C219.281,244.662 220.573,245.061 222.476,245.061L234.199,245.061C238.107,245.061 240.944,244.505 242.711,243.394C244.478,242.282 246.177,240.093 247.809,236.827C249.915,232.519 252.073,226.021 254.282,217.335L256.321,217.335L250.357,252.775L197.092,252.775L197.092,248.918L199.538,248.918C201.169,248.918 202.716,248.119 204.177,246.521C205.264,245.409 206.003,243.741 206.394,241.517C206.785,239.294 206.98,234.742 206.98,227.863L206.98,136.033C206.98,127.069 206.538,121.545 205.655,119.46C204.432,116.68 202.393,115.29 199.538,115.29L197.092,115.29L197.092,111.434L250.357,111.434L251.122,142.391L249.134,142.391C248.42,134.956 247.63,129.848 246.764,127.069C245.897,124.289 244.614,122.17 242.915,120.711C241.556,119.668 239.16,119.147 235.728,119.147L216.767,119.147Z" style="fill:rgb(8,6,5);fill-rule:nonzero;"/>
                </g>
                <g transform="matrix(4.150896,0,0,2.029847,1.768171,293.41396)">
                    <path d="M308.772,174.495L323.605,219.733C327.716,232.241 330.766,240.145 332.754,243.446C334.742,246.747 337.265,248.571 340.323,248.918L340.323,252.775L310.658,252.775L310.658,248.918C312.629,248.849 314.09,248.432 315.041,247.667C315.755,247.042 316.341,246.086 316.8,244.801C317.259,243.515 317.488,242.212 317.488,240.892C317.488,239.294 317.335,237.696 317.029,236.097C316.791,234.916 315.857,231.858 314.226,226.925L302.502,190.651L288.026,228.592C286.497,232.623 285.58,235.316 285.274,236.671C284.968,238.026 284.815,239.433 284.815,240.892C284.815,243.116 285.274,244.957 286.191,246.416C287.109,247.876 288.859,248.71 291.441,248.918L291.441,252.775L266.924,252.775L266.924,248.918C268.657,248.571 270.152,247.841 271.409,246.729C273.516,244.922 275.521,242.49 277.424,239.433C279.327,236.375 281.502,231.685 283.949,225.361L300.259,183.251L286.65,142.495C282.946,131.447 279.803,124.202 277.22,120.763C274.638,117.323 271.664,115.499 268.3,115.29L268.3,111.434L300.259,111.434L300.259,115.29C297.541,115.499 295.681,116.402 294.678,118.001C293.676,119.599 293.174,121.371 293.174,123.316C293.174,125.888 293.99,129.64 295.621,134.574L306.223,166.99L318.507,135.199C319.935,131.447 320.81,128.876 321.132,127.486C321.455,126.096 321.617,124.672 321.617,123.212C321.617,121.753 321.413,120.467 321.005,119.356C320.495,117.896 319.85,116.871 319.068,116.281C318.286,115.69 316.672,115.36 314.226,115.29L314.226,111.434L338.743,111.434L338.743,115.29C336.806,115.499 335.226,116.124 334.003,117.167C332.168,118.765 330.486,120.919 328.957,123.629C327.427,126.339 325.27,131.342 322.483,138.639L308.772,174.495Z" style="fill:rgb(8,6,5);fill-rule:nonzero;"/>
                </g>
                <g transform="matrix(4.150896,0,0,2.029847,1.768171,293.41396)">
                    <path d="M409.391,111.434L410.156,144.58L408.219,144.58C407.845,138.743 407.335,134.574 406.69,132.072C405.636,128.042 404.234,125.071 402.484,123.16C400.734,121.249 398.432,120.294 395.578,120.294L385.842,120.294L385.842,228.28C385.842,236.966 386.301,242.386 387.218,244.54C388.51,247.459 390.497,248.918 393.182,248.918L395.578,248.918L395.578,252.775L366.269,252.775L366.269,248.918L368.716,248.918C371.638,248.918 373.711,247.111 374.934,243.498C375.682,241.274 376.055,236.202 376.055,228.28L376.055,120.294L367.747,120.294C364.519,120.294 362.225,120.78 360.866,121.753C359.099,123.073 357.587,125.61 356.329,129.362C355.072,133.114 354.325,138.187 354.087,144.58L352.15,144.58L352.965,111.434L409.391,111.434Z" style="fill:rgb(8,6,5);fill-rule:nonzero;"/>
                </g>
                <g transform="matrix(4.150896,0,0,2.029847,1.768171,293.41396)">
                    <path d="M476.077,248.918L476.077,252.775L446.463,252.775L446.463,248.918L448.909,248.918C451.764,248.918 453.837,247.216 455.128,243.811C455.944,241.587 456.351,236.236 456.351,227.759L456.351,136.45C456.351,129.293 456.13,124.567 455.689,122.274C455.349,120.537 454.652,119.043 453.599,117.792C452.104,116.124 450.541,115.29 448.909,115.29L446.463,115.29L446.463,111.434L476.077,111.434L476.077,115.29L473.58,115.29C470.759,115.29 468.703,116.993 467.412,120.398C466.563,122.622 466.138,127.972 466.138,136.45L466.138,227.759C466.138,234.916 466.359,239.641 466.801,241.934C467.14,243.672 467.854,245.166 468.941,246.416C470.403,248.084 471.949,248.918 473.58,248.918L476.077,248.918Z" style="fill:rgb(8,6,5);fill-rule:nonzero;"/>
                </g>
                <g transform="matrix(4.150896,0,0,2.029847,1.768171,293.41396)">
                    <path d="M484.693,111.434L503.45,111.434L545.706,217.439L545.706,135.929C545.706,127.243 545.23,121.822 544.279,119.668C543.021,116.75 541.033,115.29 538.315,115.29L535.919,115.29L535.919,111.434L559.978,111.434L559.978,115.29L557.531,115.29C554.609,115.29 552.536,117.097 551.313,120.711C550.565,122.934 550.191,128.007 550.191,135.929L550.191,255.068L548.356,255.068L502.788,141.245L502.788,228.28C502.788,236.966 503.246,242.386 504.164,244.54C505.455,247.459 507.443,248.918 510.128,248.918L512.574,248.918L512.574,252.775L488.516,252.775L488.516,248.918L490.911,248.918C493.868,248.918 495.957,247.111 497.181,243.498C497.928,241.274 498.302,236.202 498.302,228.28L498.302,129.987C496.297,125.193 494.777,122.031 493.74,120.502C492.704,118.973 491.183,117.549 489.178,116.229C488.193,115.603 486.698,115.29 484.693,115.29L484.693,111.434Z" style="fill:rgb(8,6,5);fill-rule:nonzero;"/>
                </g>
                <g transform="matrix(4.150896,0,0,2.029847,1.768171,293.41396)">
                    <path d="M655.901,213.687L657.583,214.417L651.67,252.775L598.15,252.775L598.15,248.918L600.749,248.918C603.671,248.918 605.761,246.972 607.019,243.081C607.732,240.857 608.089,235.715 608.089,227.654L608.089,136.45C608.089,127.625 607.613,122.1 606.662,119.877C605.337,116.819 603.366,115.29 600.749,115.29L598.15,115.29L598.15,111.434L629.446,111.434L629.446,115.29C625.776,115.221 623.202,115.916 621.724,117.375C620.246,118.834 619.235,120.676 618.691,122.9C618.147,125.123 617.876,130.439 617.876,138.847L617.876,227.654C617.876,233.422 618.147,237.383 618.691,239.537C619.099,240.996 619.728,242.073 620.577,242.768C621.427,243.463 624.077,243.811 628.529,243.811L633.575,243.811C638.876,243.811 642.597,243.011 644.738,241.413C646.879,239.815 648.832,236.983 650.599,232.918C652.366,228.853 654.134,222.443 655.901,213.687Z" style="fill:rgb(8,6,5);fill-rule:nonzero;"/>
                </g>
                <g transform="matrix(4.150896,0,0,2.029847,1.768171,293.41396)">
                    <path d="M699.482,248.918L699.482,252.775L669.868,252.775L669.868,248.918L672.314,248.918C675.169,248.918 677.242,247.216 678.533,243.811C679.349,241.587 679.756,236.236 679.756,227.759L679.756,136.45C679.756,129.293 679.535,124.567 679.094,122.274C678.754,120.537 678.057,119.043 677.004,117.792C675.509,116.124 673.946,115.29 672.314,115.29L669.868,115.29L669.868,111.434L699.482,111.434L699.482,115.29L696.985,115.29C694.164,115.29 692.108,116.993 690.817,120.398C689.968,122.622 689.543,127.972 689.543,136.45L689.543,227.759C689.543,234.916 689.764,239.641 690.206,241.934C690.545,243.672 691.259,245.166 692.346,246.416C693.808,248.084 695.354,248.918 696.985,248.918L699.482,248.918Z" style="fill:rgb(8,6,5);fill-rule:nonzero;"/>
                </g>
                <g transform="matrix(4.150896,0,0,2.029847,1.768171,293.41396)">
                    <path d="M708.098,111.434L726.855,111.434L769.111,217.439L769.111,135.929C769.111,127.243 768.635,121.822 767.684,119.668C766.426,116.75 764.438,115.29 761.72,115.29L759.324,115.29L759.324,111.434L783.383,111.434L783.383,115.29L780.936,115.29C778.014,115.29 775.941,117.097 774.718,120.711C773.97,122.934 773.596,128.007 773.596,135.929L773.596,255.068L771.761,255.068L726.193,141.245L726.193,228.28C726.193,236.966 726.651,242.386 727.569,244.54C728.86,247.459 730.848,248.918 733.533,248.918L735.979,248.918L735.979,252.775L711.921,252.775L711.921,248.918L714.316,248.918C717.273,248.918 719.362,247.111 720.586,243.498C721.333,241.274 721.707,236.202 721.707,228.28L721.707,129.987C719.702,125.193 718.182,122.031 717.145,120.502C716.109,118.973 714.588,117.549 712.583,116.229C711.598,115.603 710.103,115.29 708.098,115.29L708.098,111.434Z" style="fill:rgb(8,6,5);fill-rule:nonzero;"/>
                </g>
                <g transform="matrix(4.150896,0,0,2.029847,1.768171,293.41396)">
                    <path d="M814.12,119.147L814.12,175.016L829.309,175.016C833.251,175.016 835.885,173.8 837.21,171.368C838.977,168.172 839.963,162.543 840.166,154.482L842.052,154.482L842.052,203.681L840.166,203.681C839.691,196.801 839.215,192.389 838.739,190.443C838.128,188.011 837.125,186.1 835.732,184.71C834.339,183.32 832.198,182.625 829.309,182.625L814.12,182.625L814.12,229.218C814.12,235.472 814.256,239.276 814.528,240.631C814.8,241.987 815.275,243.064 815.955,243.863C816.635,244.662 817.926,245.061 819.829,245.061L831.552,245.061C835.46,245.061 838.298,244.505 840.065,243.394C841.832,242.282 843.531,240.093 845.162,236.827C847.269,232.519 849.426,226.021 851.635,217.335L853.674,217.335L847.71,252.775L794.445,252.775L794.445,248.918L796.891,248.918C798.523,248.918 800.069,248.119 801.53,246.521C802.617,245.409 803.356,243.741 803.747,241.517C804.138,239.294 804.333,234.742 804.333,227.863L804.333,136.033C804.333,127.069 803.892,121.545 803.008,119.46C801.785,116.68 799.746,115.29 796.891,115.29L794.445,115.29L794.445,111.434L847.71,111.434L848.475,142.391L846.487,142.391C845.773,134.956 844.983,129.848 844.117,127.069C843.25,124.289 841.967,122.17 840.268,120.711C838.909,119.668 836.514,119.147 833.081,119.147L814.12,119.147Z" style="fill:rgb(8,6,5);fill-rule:nonzero;"/>
                </g>
            </g>
            <g transform="matrix(4.166667,0,0,4.166667,0,70)">
                <path d="M283.501,235.791L288.696,235.791L296.389,258.433L304.028,235.791L309.169,235.791L309.169,262.571L305.723,262.571L305.723,246.765C305.723,246.219 305.735,245.313 305.76,244.049C305.784,242.785 305.796,241.43 305.796,239.984L298.158,262.571L294.566,262.571L286.873,239.984L286.873,240.804C286.873,241.461 286.889,242.46 286.919,243.803C286.949,245.146 286.965,246.133 286.965,246.765L286.965,262.571L283.501,262.571L283.501,235.791Z" style="fill:rgb(8,6,5);fill-rule:nonzero;"/>
                <path d="M349.552,251.596L345.487,239.765L341.167,251.596L349.552,251.596ZM343.591,235.791L347.693,235.791L357.41,262.571L353.435,262.571L350.719,254.55L340.128,254.55L337.229,262.571L333.51,262.571L343.591,235.791Z" style="fill:rgb(8,6,5);fill-rule:nonzero;"/>
                <path d="M379.329,235.791L383.614,235.791L397.14,257.485L397.14,235.791L400.586,235.791L400.586,262.571L396.52,262.571L382.793,240.895L382.793,262.571L379.329,262.571L379.329,235.791Z" style="fill:rgb(8,6,5);fill-rule:nonzero;"/>
                <path d="M439.97,251.596L435.905,239.765L431.584,251.596L439.97,251.596ZM434.009,235.791L438.11,235.791L447.827,262.571L443.853,262.571L441.137,254.55L430.545,254.55L427.646,262.571L423.928,262.571L434.009,235.791Z" style="fill:rgb(8,6,5);fill-rule:nonzero;"/>
                <path d="M481.323,235.098C483.839,235.098 486.014,235.584 487.849,236.557C490.511,237.954 492.139,240.403 492.735,243.903L489.144,243.903C488.706,241.947 487.801,240.522 486.427,239.628C485.054,238.735 483.322,238.288 481.232,238.288C478.753,238.288 476.665,239.218 474.97,241.078C473.274,242.937 472.427,245.708 472.427,249.391C472.427,252.575 473.126,255.166 474.523,257.166C475.921,259.165 478.2,260.164 481.359,260.164C483.778,260.164 485.78,259.463 487.366,258.059C488.952,256.655 489.764,254.386 489.8,251.25L481.414,251.25L481.414,248.242L493.173,248.242L493.173,262.571L490.839,262.571L489.964,259.125C488.737,260.474 487.649,261.41 486.701,261.933C485.109,262.832 483.085,263.282 480.63,263.282C477.458,263.282 474.73,262.255 472.445,260.201C469.954,257.624 468.708,254.088 468.708,249.591C468.708,245.107 469.923,241.54 472.354,238.89C474.663,236.362 477.653,235.098 481.323,235.098Z" style="fill:rgb(8,6,5);fill-rule:nonzero;"/>
                <path d="M516.65,235.791L536.175,235.791L536.175,239.072L520.187,239.072L520.187,247.203L534.972,247.203L534.972,250.302L520.187,250.302L520.187,259.381L536.448,259.381L536.448,262.571L516.65,262.571L516.65,235.791Z" style="fill:rgb(8,6,5);fill-rule:nonzero;"/>
                <path d="M556.828,235.791L562.024,235.791L569.717,258.433L577.355,235.791L582.496,235.791L582.496,262.571L579.051,262.571L579.051,246.765C579.051,246.219 579.063,245.313 579.087,244.049C579.111,242.785 579.124,241.43 579.124,239.984L571.485,262.571L567.894,262.571L560.201,239.984L560.201,240.804C560.201,241.461 560.216,242.46 560.246,243.803C560.277,245.146 560.292,246.133 560.292,246.765L560.292,262.571L556.828,262.571L556.828,235.791Z" style="fill:rgb(8,6,5);fill-rule:nonzero;"/>
                <path d="M609.481,235.791L629.005,235.791L629.005,239.072L613.018,239.072L613.018,247.203L627.802,247.203L627.802,250.302L613.018,250.302L613.018,259.381L629.279,259.381L629.279,262.571L609.481,262.571L609.481,235.791Z" style="fill:rgb(8,6,5);fill-rule:nonzero;"/>
                <path d="M650.124,235.791L654.408,235.791L667.934,257.485L667.934,235.791L671.38,235.791L671.38,262.571L667.315,262.571L653.587,240.895L653.587,262.571L650.124,262.571L650.124,235.791Z" style="fill:rgb(8,6,5);fill-rule:nonzero;"/>
                <path d="M716.506,235.791L716.506,238.981L707.482,238.981L707.482,262.571L703.799,262.571L703.799,238.981L694.775,238.981L694.775,235.791L716.506,235.791Z" style="fill:rgb(8,6,5);fill-rule:nonzero;"/>
            </g>
        </g>
    </g>
</svg>
